# xmcd
#
# Track frame offsets:
#	150
#	13102
#	27587
#	41945
#	56780
#	70720
#	83977
#	97440
#	109805
#	122340
#	135165
#	148975
#	162072
#	175260
#	188610
#	201892
#	215127
#	227782
#
# Disc length: 3223 seconds
#
# Revision: 0
# Processed by: cddbd v1.5.2PL0 Copyright (c) Steve Scherf et al.
# Submitted via: EasyCDDAExtractor 16.0.6.1
#
DISCID=0c0c9512
DTITLE=Σακελλαρίου Ρίτα - Τα πρώτα μου τραγούδια 1968-72-Ρ. Σακελλαρίου
DYEAR=1995
DGENRE=Λαϊκή
TTITLE0=Σακελλαρίου Ρίτα-Παπαϊωάννου Γιάννης - Εσύ αν είσαι πονηρή
TTITLE1=Σακελλαρίου Ρίτα - Δυό πόνοι κάνουν μιά χαρά
TTITLE2=Σακελλαρίου Ρίτα-Παπαϊωάννου Γιάννης - Στην αποβάθρα του Πειραιά
TTITLE3=Σακελλαρίου Ρίτα - Το τελευταίο δειλινό
TTITLE4=Σακελλαρίου Ρίτα - Κάθε ηλιοβασίλεμα
TTITLE5=Σακελλαρίου Ρίτα - Ας εύρισκα έναν άνθρωπο
TTITLE6=Σακελλαρίου Ρίτα - Δε θέλω πια να μ' αγαπάς
TTITLE7=Σακελλαρίου Ρίτα - Μέχρι πότε θα σε συγχωρώ
TTITLE8=Σακελλαρίου Ρίτα-Ξανθόπουλος Νίκος - Μιά φορά στις δέκα μέρες
TTITLE9=Σακελλαρίου Ρίτα - Κράτα τη θέση σου ψηλά
TTITLE10=Σακελλαρίου Ρίτα - Ξύπνια ντερμπεντέρισα
TTITLE11=Σακελλαρίου Ρίτα - Άνοιγε φίλε, άνοιγε
TTITLE12=Σακελλαρίου Ρίτα - Όλοι οι άντρες λέν' τα ίδια
TTITLE13=Σακελλαρίου Ρίτα - Ο παραμυθατζής
TTITLE14=Σακελλαρίου Ρίτα - Η ζημιά
TTITLE15=Σακελλαρίου Ρίτα - Κάνε ό,τι σού αρέσει
TTITLE16=Σακελλαρίου Ρίτα - Μιά γυναίκα πέρασε
TTITLE17=Σακελλαρίου Ρίτα - Ιστορία μου
EXTD=
EXTT0=
EXTT1=
EXTT2=
EXTT3=
EXTT4=
EXTT5=
EXTT6=
EXTT7=
EXTT8=
EXTT9=
EXTT10=
EXTT11=
EXTT12=
EXTT13=
EXTT14=
EXTT15=
EXTT16=
EXTT17=
PLAYORDER=
